# xmcd
#
# Track frame offsets: 
#        150
#        5150
#        17497
#        27549
#        39386
#        48468
#        68826
#        89388
#        106940
#        119492
#        127095
#        131942
#        138983
#        143371
#        151535
#        159444
#        171944
#        179496
#        201027
#        206793
#        223936
#        243834
#        254705
#        263682
#        275859
#        287458
#        304703
#        318836
#        328275
#
# Disc length: 4396 seconds
#
# Revision: 0
# Processed by: cddbd v1.5.2PL0 Copyright (c) Steve Scherf et al.
# Submitted via: ExactAudioCopy v0.99pb5
#
DISCID=b5112a1d
DTITLE=Elvis Presley  - FTD 50 - Summer Festival - 08-11-1972  
DYEAR=1900
DGENRE=
TTITLE0=Also Sprach Zarathustra
TTITLE1=See See Rider
TTITLE2=I Got A Woman
TTITLE3=Until It's Time For You To Go
TTITLE4=You Don't Have To Say You Love Me
TTITLE5=You've Lost That Loving Feeling
TTITLE6=Polk Salad Annie
TTITLE7=What Now My Love
TTITLE8=Fever
TTITLE9=Love Me
TTITLE10=Blue Suede Shoes
TTITLE11=One Night
TTITLE12=All Shook Up
TTITLE13=(Let Me Be Your) Teddy Bear-Don't Be Cruel
TTITLE14=Heartbreak Hotel
TTITLE15=Hound Dog
TTITLE16=Love Me Tender
TTITLE17=Suspicious Minds
TTITLE18=Introductions
TTITLE19=My Way
TTITLE20=An American Trilogy
TTITLE21=Can't Help Falling In Love-instrumental closing
TTITLE22=Little Sister-Get Back
TTITLE23=It's Over
TTITLE24=Proud Mary
TTITLE25=Never Been To Spain
TTITLE26=For The Good Times
TTITLE27=A Big Hunk O' Love
TTITLE28=Tiger Man (opening only)
EXTD=
EXTT0=
EXTT1=
EXTT2=
EXTT3=
EXTT4=
EXTT5=
EXTT6=
EXTT7=
EXTT8=
EXTT9=
EXTT10=
EXTT11=
EXTT12=
EXTT13=
EXTT14=
EXTT15=
EXTT16=
EXTT17=
EXTT18=
EXTT19=
EXTT20=
EXTT21=
EXTT22=
EXTT23=
EXTT24=
EXTT25=
EXTT26=
EXTT27=
EXTT28=
PLAYORDER=
